<?xml version="1.0" standalone="no"?>
<svg xmlns:xlink="http://www.w3.org/1999/xlink" id="wave" style="transform:rotate(0deg); transition: 0.3s" viewBox="0 0 1440 490" version="1.1" xmlns="http://www.w3.org/2000/svg"><defs><linearGradient id="sw-gradient-0" x1="0" x2="0" y1="1" y2="0"><stop stop-color="rgba(219.512, 56.773, 220.251, 1)" offset="0%"/><stop stop-color="rgba(255, 11, 156.904, 1)" offset="100%"/></linearGradient></defs><path style="transform:translate(0, 0px); opacity:1" fill="url(#sw-gradient-0)" d="M0,245L80,228.7C160,212,320,180,480,138.8C640,98,800,49,960,24.5C1120,0,1280,0,1440,32.7C1600,65,1760,131,1920,147C2080,163,2240,131,2400,114.3C2560,98,2720,98,2880,130.7C3040,163,3200,229,3360,285.8C3520,343,3680,392,3840,375.7C4000,359,4160,278,4320,220.5C4480,163,4640,131,4800,171.5C4960,212,5120,327,5280,310.3C5440,294,5600,147,5760,89.8C5920,33,6080,65,6240,98C6400,131,6560,163,6720,171.5C6880,180,7040,163,7200,196C7360,229,7520,310,7680,351.2C7840,392,8000,392,8160,383.8C8320,376,8480,359,8640,359.3C8800,359,8960,376,9120,334.8C9280,294,9440,196,9600,171.5C9760,147,9920,196,10080,204.2C10240,212,10400,180,10560,155.2C10720,131,10880,114,11040,106.2C11200,98,11360,98,11440,98L11520,98L11520,490L11440,490C11360,490,11200,490,11040,490C10880,490,10720,490,10560,490C10400,490,10240,490,10080,490C9920,490,9760,490,9600,490C9440,490,9280,490,9120,490C8960,490,8800,490,8640,490C8480,490,8320,490,8160,490C8000,490,7840,490,7680,490C7520,490,7360,490,7200,490C7040,490,6880,490,6720,490C6560,490,6400,490,6240,490C6080,490,5920,490,5760,490C5600,490,5440,490,5280,490C5120,490,4960,490,4800,490C4640,490,4480,490,4320,490C4160,490,4000,490,3840,490C3680,490,3520,490,3360,490C3200,490,3040,490,2880,490C2720,490,2560,490,2400,490C2240,490,2080,490,1920,490C1760,490,1600,490,1440,490C1280,490,1120,490,960,490C800,490,640,490,480,490C320,490,160,490,80,490L0,490Z"/></svg>